<?plantuml 1.2026.2?><svg xmlns="http://www.w3.org/2000/svg" xmlns:xlink="http://www.w3.org/1999/xlink" contentStyleType="text/css" data-diagram-type="DESCRIPTION" height="881px" preserveAspectRatio="none" style="width:1089px;height:881px;background:#FFFFFF;" version="1.1" viewBox="0 0 1089 881" width="1089px" zoomAndPan="magnify"><title>General Architecture</title><defs/><g><g class="title" data-source-line="2"><text fill="#000000" font-family="sans-serif" font-size="14" font-weight="bold" lengthAdjust="spacing" textLength="146.7334" x="464.1333" y="24.9659">General Architecture</text></g><!--cluster ds--><g class="cluster" data-qualified-name="ds" data-source-line="4" id="ent0002"><rect fill="none" height="211" rx="2.5" ry="2.5" style="stroke:#181818;stroke-width:1;" width="283" x="800" y="47.0679"/><path d="M901.3496,47.0679 L901.3496,59.1358 L891.3496,69.1358 L800,69.1358" fill="none" style="stroke:#181818;stroke-width:1;"/><text fill="#000000" font-family="sans-serif" font-size="14" font-weight="bold" lengthAdjust="spacing" textLength="91.3496" x="803" y="63.0339">Data Sources</text></g><!--cluster orc--><g class="cluster" data-qualified-name="orc" data-source-line="22" id="ent0014"><rect fill="none" height="230.5" rx="2.5" ry="2.5" style="stroke:#181818;stroke-width:1;" width="393" x="615" y="282.0679"/><path d="M723.2236,282.0679 L723.2236,294.1358 L713.2236,304.1358 L615,304.1358" fill="none" style="stroke:#181818;stroke-width:1;"/><text fill="#000000" font-family="sans-serif" font-size="14" font-weight="bold" lengthAdjust="spacing" textLength="98.2236" x="618" y="298.0339">Orchestration</text></g><!--cluster Processor--><g class="cluster" data-qualified-name="orc.Processor" data-source-line="25" id="ent0017"><rect fill="none" height="144" rx="2.5" ry="2.5" style="stroke:#181818;stroke-width:1;" width="133" x="852" y="344.5679"/><rect fill="none" height="10" style="stroke:#181818;stroke-width:1;" width="15" x="965" y="349.5679"/><rect fill="none" height="2" style="stroke:#181818;stroke-width:1;" width="4" x="963" y="351.5679"/><rect fill="none" height="2" style="stroke:#181818;stroke-width:1;" width="4" x="963" y="355.5679"/><text fill="#000000" font-family="sans-serif" font-size="14" font-weight="bold" lengthAdjust="spacing" textLength="68.2217" x="884.3891" y="372.5339">Processor</text></g><!--cluster pro--><g class="cluster" data-qualified-name="pro" data-source-line="34" id="ent0022"><rect fill="none" height="376" rx="2.5" ry="2.5" style="stroke:#181818;stroke-width:1;" width="584" x="7" y="391.0679"/><path d="M149.3135,391.0679 L149.3135,403.1358 L139.3135,413.1358 L7,413.1358" fill="none" style="stroke:#181818;stroke-width:1;"/><text fill="#000000" font-family="sans-serif" font-size="14" font-weight="bold" lengthAdjust="spacing" textLength="132.3135" x="10" y="407.0339">Parallel Processing</text></g><!--cluster dd--><g class="cluster" data-qualified-name="dd" data-source-line="50" id="ent0033"><rect fill="none" height="338.5" rx="2.5" ry="2.5" style="stroke:#181818;stroke-width:1;" width="256" x="615" y="536.5679"/><path d="M865.8691,536.5679 L865.8691,548.6358 L855.8691,558.6358 L615,558.6358" fill="none" style="stroke:#181818;stroke-width:1;"/><text fill="#000000" font-family="sans-serif" font-size="14" font-weight="bold" lengthAdjust="spacing" textLength="240.8691" x="618" y="552.5339">Categorized Message Destinations</text></g><!--cluster dest--><g class="cluster" data-qualified-name="dd.dest" data-source-line="51" id="ent0034"><rect fill="none" height="144" rx="2.5" ry="2.5" style="stroke:#181818;stroke-width:1;" width="140" x="652" y="582.5679"/><rect fill="none" height="10" style="stroke:#181818;stroke-width:1;" width="15" x="772" y="587.5679"/><rect fill="none" height="2" style="stroke:#181818;stroke-width:1;" width="4" x="770" y="589.5679"/><rect fill="none" height="2" style="stroke:#181818;stroke-width:1;" width="4" x="770" y="593.5679"/><text fill="#000000" font-family="sans-serif" font-size="14" font-weight="bold" lengthAdjust="spacing" textLength="81.8017" x="681.0992" y="610.5339">Destination</text></g><!--entity db--><g class="entity" data-qualified-name="ds.db" data-source-line="5" id="ent0003"><path d="M845.5,95.0679 C845.5,85.0679 864.11,85.0679 864.11,85.0679 C864.11,85.0679 882.7199,85.0679 882.7199,95.0679 L882.7199,123.1358 C882.7199,133.1358 864.11,133.1358 864.11,133.1358 C864.11,133.1358 845.5,133.1358 845.5,123.1358 L845.5,95.0679" fill="#F1F1F1" style="stroke:#181818;stroke-width:0.5;"/><path d="M845.5,95.0679 C845.5,105.0679 864.11,105.0679 864.11,105.0679 C864.11,105.0679 882.7199,105.0679 882.7199,95.0679" fill="none" style="stroke:#181818;stroke-width:0.5;"/><text fill="#000000" font-family="sans-serif" font-size="14" lengthAdjust="spacing" textLength="17.2199" x="855.5" y="124.0339">db</text></g><!--entity s3--><g class="entity" data-qualified-name="ds.s3" data-source-line="6" id="ent0004"><path d="M1003.5,95.0679 C1003.5,85.0679 1020.857,85.0679 1020.857,85.0679 C1020.857,85.0679 1038.2139,85.0679 1038.2139,95.0679 L1038.2139,123.1358 C1038.2139,133.1358 1020.857,133.1358 1020.857,133.1358 C1020.857,133.1358 1003.5,133.1358 1003.5,123.1358 L1003.5,95.0679" fill="#F1F1F1" style="stroke:#181818;stroke-width:0.5;"/><path d="M1003.5,95.0679 C1003.5,105.0679 1020.857,105.0679 1020.857,105.0679 C1020.857,105.0679 1038.2139,105.0679 1038.2139,95.0679" fill="none" style="stroke:#181818;stroke-width:0.5;"/><text fill="#000000" font-family="sans-serif" font-size="14" lengthAdjust="spacing" textLength="14.7139" x="1013.5" y="124.0339">s3</text></g><!--entity local--><g class="entity" data-qualified-name="ds.local" data-source-line="7" id="ent0005"><path d="M918,95.0679 C918,85.0679 943.1339,85.0679 943.1339,85.0679 C943.1339,85.0679 968.2679,85.0679 968.2679,95.0679 L968.2679,123.1358 C968.2679,133.1358 943.1339,133.1358 943.1339,133.1358 C943.1339,133.1358 918,133.1358 918,123.1358 L918,95.0679" fill="#F1F1F1" style="stroke:#181818;stroke-width:0.5;"/><path d="M918,95.0679 C918,105.0679 943.1339,105.0679 943.1339,105.0679 C943.1339,105.0679 968.2679,105.0679 968.2679,95.0679" fill="none" style="stroke:#181818;stroke-width:0.5;"/><text fill="#000000" font-family="sans-serif" font-size="14" lengthAdjust="spacing" textLength="30.2679" x="928" y="124.0339">local</text></g><!--entity Categories--><g class="entity" data-qualified-name="ds.Categories" data-source-line="9" id="ent0006"><rect fill="#F1F1F1" height="49.0679" rx="2.5" ry="2.5" style="stroke:#181818;stroke-width:0.5;" width="110.7277" x="815.5" y="193.0679"/><rect fill="#F1F1F1" height="10" style="stroke:#181818;stroke-width:0.5;" width="15" x="906.2277" y="198.0679"/><rect fill="#F1F1F1" height="2" style="stroke:#181818;stroke-width:0.5;" width="4" x="904.2277" y="200.0679"/><rect fill="#F1F1F1" height="2" style="stroke:#181818;stroke-width:0.5;" width="4" x="904.2277" y="204.0679"/><text fill="#000000" font-family="sans-serif" font-size="14" lengthAdjust="spacing" textLength="70.7277" x="830.5" y="228.0339">Categories</text></g><!--entity Messages--><g class="entity" data-qualified-name="ds.Messages" data-source-line="10" id="ent0007"><rect fill="#F1F1F1" height="49.0679" rx="2.5" ry="2.5" style="stroke:#181818;stroke-width:0.5;" width="105.0718" x="961.5" y="193.0679"/><rect fill="#F1F1F1" height="10" style="stroke:#181818;stroke-width:0.5;" width="15" x="1046.5718" y="198.0679"/><rect fill="#F1F1F1" height="2" style="stroke:#181818;stroke-width:0.5;" width="4" x="1044.5718" y="200.0679"/><rect fill="#F1F1F1" height="2" style="stroke:#181818;stroke-width:0.5;" width="4" x="1044.5718" y="204.0679"/><text fill="#000000" font-family="sans-serif" font-size="14" lengthAdjust="spacing" textLength="65.0718" x="976.5" y="228.0339">Messages</text></g><!--entity Logger--><g class="entity" data-qualified-name="orc.Logger" data-source-line="23" id="ent0015"><rect fill="#F1F1F1" height="49.0679" rx="2.5" ry="2.5" style="stroke:#181818;stroke-width:0.5;" width="86.7038" x="748.5" y="320.0679"/><rect fill="#F1F1F1" height="10" style="stroke:#181818;stroke-width:0.5;" width="15" x="815.2038" y="325.0679"/><rect fill="#F1F1F1" height="2" style="stroke:#181818;stroke-width:0.5;" width="4" x="813.2038" y="327.0679"/><rect fill="#F1F1F1" height="2" style="stroke:#181818;stroke-width:0.5;" width="4" x="813.2038" y="331.0679"/><text fill="#000000" font-family="sans-serif" font-size="14" lengthAdjust="spacing" textLength="46.7038" x="763.5" y="355.0339">Logger</text></g><!--entity Tracer--><g class="entity" data-qualified-name="orc.Tracer" data-source-line="24" id="ent0016"><rect fill="#F1F1F1" height="49.0679" rx="2.5" ry="2.5" style="stroke:#181818;stroke-width:0.5;" width="81.8178" x="631" y="320.0679"/><rect fill="#F1F1F1" height="10" style="stroke:#181818;stroke-width:0.5;" width="15" x="692.8178" y="325.0679"/><rect fill="#F1F1F1" height="2" style="stroke:#181818;stroke-width:0.5;" width="4" x="690.8178" y="327.0679"/><rect fill="#F1F1F1" height="2" style="stroke:#181818;stroke-width:0.5;" width="4" x="690.8178" y="331.0679"/><text fill="#000000" font-family="sans-serif" font-size="14" lengthAdjust="spacing" textLength="41.8178" x="646" y="355.0339">Tracer</text></g><g class="entity" data-qualified-name="orc.Processor.cin" data-source-line="26" id="ent0018"><text fill="#000000" font-family="sans-serif" font-size="14" lengthAdjust="spacing" textLength="3.64" x="965.18" y="322.4659">&#160;</text><rect fill="#F1F1F1" height="12" style="stroke:#181818;stroke-width:1.5;" width="12" x="961" y="338.5679"/></g><g class="entity" data-qualified-name="orc.Processor.min" data-source-line="27" id="ent0019"><text fill="#000000" font-family="sans-serif" font-size="14" lengthAdjust="spacing" textLength="3.64" x="916.18" y="322.4659">&#160;</text><rect fill="#F1F1F1" height="12" style="stroke:#181818;stroke-width:1.5;" width="12" x="912" y="338.5679"/></g><!--entity mp--><g class="entity" data-qualified-name="pro.mp" data-source-line="35" id="ent0023"><rect fill="#F1F1F1" height="49.0679" rx="2.5" ry="2.5" style="stroke:#181818;stroke-width:0.5;" width="167.0075" x="407.5" y="429.0679"/><rect fill="#F1F1F1" height="10" style="stroke:#181818;stroke-width:0.5;" width="15" x="554.5075" y="434.0679"/><rect fill="#F1F1F1" height="2" style="stroke:#181818;stroke-width:0.5;" width="4" x="552.5075" y="436.0679"/><rect fill="#F1F1F1" height="2" style="stroke:#181818;stroke-width:0.5;" width="4" x="552.5075" y="440.0679"/><text fill="#000000" font-family="sans-serif" font-size="14" lengthAdjust="spacing" textLength="127.0075" x="422.5" y="464.0339">Message Processor</text></g><!--entity cp--><g class="entity" data-qualified-name="pro.cp" data-source-line="36" id="ent0024"><rect fill="#F1F1F1" height="49.0679" rx="2.5" ry="2.5" style="stroke:#181818;stroke-width:0.5;" width="168.2955" x="407" y="593.0679"/><rect fill="#F1F1F1" height="10" style="stroke:#181818;stroke-width:0.5;" width="15" x="555.2955" y="598.0679"/><rect fill="#F1F1F1" height="2" style="stroke:#181818;stroke-width:0.5;" width="4" x="553.2955" y="600.0679"/><rect fill="#F1F1F1" height="2" style="stroke:#181818;stroke-width:0.5;" width="4" x="553.2955" y="604.0679"/><text fill="#000000" font-family="sans-serif" font-size="14" lengthAdjust="spacing" textLength="128.2955" x="422" y="628.0339">Category Processor</text></g><!--entity regex--><g class="entity" data-qualified-name="pro.regex" data-source-line="38" id="ent0025"><rect fill="#F1F1F1" height="49.0679" rx="2.5" ry="2.5" style="stroke:#181818;stroke-width:0.5;" width="166.3775" x="23" y="702.0679"/><rect fill="#F1F1F1" height="10" style="stroke:#181818;stroke-width:0.5;" width="15" x="169.3775" y="707.0679"/><rect fill="#F1F1F1" height="2" style="stroke:#181818;stroke-width:0.5;" width="4" x="167.3775" y="709.0679"/><rect fill="#F1F1F1" height="2" style="stroke:#181818;stroke-width:0.5;" width="4" x="167.3775" y="713.0679"/><text fill="#000000" font-family="sans-serif" font-size="14" lengthAdjust="spacing" textLength="126.3775" x="38" y="737.0339">Regular Expression</text></g><!--entity cosine--><g class="entity" data-qualified-name="pro.cosine" data-source-line="39" id="ent0026"><rect fill="#F1F1F1" height="49.0679" rx="2.5" ry="2.5" style="stroke:#181818;stroke-width:0.5;" width="148.8776" x="224.5" y="702.0679"/><rect fill="#F1F1F1" height="10" style="stroke:#181818;stroke-width:0.5;" width="15" x="353.3776" y="707.0679"/><rect fill="#F1F1F1" height="2" style="stroke:#181818;stroke-width:0.5;" width="4" x="351.3776" y="709.0679"/><rect fill="#F1F1F1" height="2" style="stroke:#181818;stroke-width:0.5;" width="4" x="351.3776" y="713.0679"/><text fill="#000000" font-family="sans-serif" font-size="14" lengthAdjust="spacing" textLength="108.8776" x="239.5" y="737.0339">Cosine Similarity</text></g><!--entity llm--><g class="entity" data-qualified-name="pro.llm" data-source-line="40" id="ent0027"><rect fill="#F1F1F1" height="49.0679" rx="2.5" ry="2.5" style="stroke:#181818;stroke-width:0.5;" width="167.3575" x="408.5" y="702.0679"/><rect fill="#F1F1F1" height="10" style="stroke:#181818;stroke-width:0.5;" width="15" x="555.8575" y="707.0679"/><rect fill="#F1F1F1" height="2" style="stroke:#181818;stroke-width:0.5;" width="4" x="553.8575" y="709.0679"/><rect fill="#F1F1F1" height="2" style="stroke:#181818;stroke-width:0.5;" width="4" x="553.8575" y="713.0679"/><text fill="#000000" font-family="sans-serif" font-size="14" lengthAdjust="spacing" textLength="127.3575" x="423.5" y="737.0339">LLM Categorization</text></g><!--entity dbd--><g class="entity" data-qualified-name="dd.dbd" data-source-line="56" id="ent0038"><path d="M631,821.0679 C631,811.0679 655.0699,811.0679 655.0699,811.0679 C655.0699,811.0679 679.1399,811.0679 679.1399,821.0679 L679.1399,849.1358 C679.1399,859.1358 655.0699,859.1358 655.0699,859.1358 C655.0699,859.1358 631,859.1358 631,849.1358 L631,821.0679" fill="#F1F1F1" style="stroke:#181818;stroke-width:0.5;"/><path d="M631,821.0679 C631,831.0679 655.0699,831.0679 655.0699,831.0679 C655.0699,831.0679 679.1399,831.0679 679.1399,821.0679" fill="none" style="stroke:#181818;stroke-width:0.5;"/><text fill="#000000" font-family="sans-serif" font-size="14" lengthAdjust="spacing" textLength="17.2199" x="644.64" y="850.0339">db</text></g><!--entity s3d--><g class="entity" data-qualified-name="dd.s3d" data-source-line="57" id="ent0039"><path d="M714,821.0679 C714,811.0679 742.0319,811.0679 742.0319,811.0679 C742.0319,811.0679 770.0639,811.0679 770.0639,821.0679 L770.0639,849.1358 C770.0639,859.1358 742.0319,859.1358 742.0319,859.1358 C742.0319,859.1358 714,859.1358 714,849.1358 L714,821.0679" fill="#F1F1F1" style="stroke:#181818;stroke-width:0.5;"/><path d="M714,821.0679 C714,831.0679 742.0319,831.0679 742.0319,831.0679 C742.0319,831.0679 770.0639,831.0679 770.0639,821.0679" fill="none" style="stroke:#181818;stroke-width:0.5;"/><text fill="#000000" font-family="sans-serif" font-size="14" lengthAdjust="spacing" textLength="36.0639" x="724" y="850.0339">cloud</text></g><!--entity locald--><g class="entity" data-qualified-name="dd.locald" data-source-line="58" id="ent0040"><path d="M805,821.0679 C805,811.0679 830.1339,811.0679 830.1339,811.0679 C830.1339,811.0679 855.2679,811.0679 855.2679,821.0679 L855.2679,849.1358 C855.2679,859.1358 830.1339,859.1358 830.1339,859.1358 C830.1339,859.1358 805,859.1358 805,849.1358 L805,821.0679" fill="#F1F1F1" style="stroke:#181818;stroke-width:0.5;"/><path d="M805,821.0679 C805,831.0679 830.1339,831.0679 830.1339,831.0679 C830.1339,831.0679 855.2679,831.0679 855.2679,821.0679" fill="none" style="stroke:#181818;stroke-width:0.5;"/><text fill="#000000" font-family="sans-serif" font-size="14" lengthAdjust="spacing" textLength="30.2679" x="815" y="850.0339">local</text></g><g class="entity" data-qualified-name="dd.dest.pdbd" data-source-line="52" id="ent0035"><text fill="#000000" font-family="sans-serif" font-size="14" lengthAdjust="spacing" textLength="3.64" x="668.18" y="747.5339">&#160;</text><rect fill="#F1F1F1" height="12" style="stroke:#181818;stroke-width:1.5;" width="12" x="664" y="720.5679"/></g><g class="entity" data-qualified-name="dd.dest.ps3d" data-source-line="53" id="ent0036"><text fill="#000000" font-family="sans-serif" font-size="14" lengthAdjust="spacing" textLength="3.64" x="725.18" y="747.5339">&#160;</text><rect fill="#F1F1F1" height="12" style="stroke:#181818;stroke-width:1.5;" width="12" x="721" y="720.5679"/></g><g class="entity" data-qualified-name="dd.dest.plocald" data-source-line="54" id="ent0037"><text fill="#000000" font-family="sans-serif" font-size="14" lengthAdjust="spacing" textLength="3.64" x="772.18" y="747.5339">&#160;</text><rect fill="#F1F1F1" height="12" style="stroke:#181818;stroke-width:1.5;" width="12" x="768" y="720.5679"/></g><!--link db to Messages--><g class="link" data-entity-1="ent0003" data-entity-2="ent0007" data-link-type="dependency" data-source-line="12" id="lnk8"><path d="M882.69,123.3379 C907.2,140.7379 945.7082,168.0737 975.8682,189.4937" fill="none" id="db-to-Messages" style="stroke:#181818;stroke-width:1;"/><polygon fill="#181818" points="980.76,192.9679,975.7384,184.4954,976.6835,190.0727,971.1061,191.0178,980.76,192.9679" style="stroke:#181818;stroke-width:1;"/></g><!--link db to Categories--><g class="link" data-entity-1="ent0003" data-entity-2="ent0006" data-link-type="dependency" data-source-line="13" id="lnk9"><path d="M865.52,133.1779 C866.68,150.7979 867.8762,168.9909 869.0462,186.7809" fill="none" id="db-to-Categories" style="stroke:#181818;stroke-width:1;"/><polygon fill="#181818" points="869.44,192.7679,872.8407,183.5248,869.1119,187.7787,864.858,184.0498,869.44,192.7679" style="stroke:#181818;stroke-width:1;"/></g><!--link s3 to Messages--><g class="link" data-entity-1="ent0004" data-entity-2="ent0007" data-link-type="dependency" data-source-line="15" id="lnk10"><path d="M1019.48,133.1779 C1018.32,150.7979 1017.1238,168.9909 1015.9538,186.7809" fill="none" id="s3-to-Messages" style="stroke:#181818;stroke-width:1;"/><polygon fill="#181818" points="1015.56,192.7679,1020.142,184.0498,1015.8881,187.7787,1012.1593,183.5248,1015.56,192.7679" style="stroke:#181818;stroke-width:1;"/></g><!--link s3 to Categories--><g class="link" data-entity-1="ent0004" data-entity-2="ent0006" data-link-type="dependency" data-source-line="16" id="lnk11"><path d="M1003.5,122.4979 C979.23,139.7179 939.7927,167.725 909.1227,189.495" fill="none" id="s3-to-Categories" style="stroke:#181818;stroke-width:1;"/><polygon fill="#181818" points="904.23,192.9679,913.8844,191.0203,908.3073,190.0738,909.2538,184.4967,904.23,192.9679" style="stroke:#181818;stroke-width:1;"/></g><!--link local to Messages--><g class="link" data-entity-1="ent0005" data-entity-2="ent0007" data-link-type="dependency" data-source-line="18" id="lnk12"><path d="M958.41,133.1779 C970.15,150.7979 982.9418,169.9856 994.8018,187.7756" fill="none" id="local-to-Messages" style="stroke:#181818;stroke-width:1;"/><polygon fill="#181818" points="998.13,192.7679,996.4659,183.0607,995.3565,188.6077,989.8095,187.4983,998.13,192.7679" style="stroke:#181818;stroke-width:1;"/></g><!--link local to Categories--><g class="link" data-entity-1="ent0005" data-entity-2="ent0006" data-link-type="dependency" data-source-line="19" id="lnk13"><path d="M927.38,133.1779 C915.47,150.7979 902.481,170.0076 890.451,187.7976" fill="none" id="local-to-Categories" style="stroke:#181818;stroke-width:1;"/><polygon fill="#181818" points="887.09,192.7679,895.445,187.5532,889.8908,188.626,888.818,183.0718,887.09,192.7679" style="stroke:#181818;stroke-width:1;"/></g><!--link Messages to cin--><g class="link" data-entity-1="ent0007" data-entity-2="ent0018" data-link-type="dependency" data-source-line="31" id="lnk20"><path d="M1005.16,242.0779 C993.88,272.0679 977.2194,316.3709 971.1094,332.6409" fill="none" id="Messages-to-cin" style="stroke:#181818;stroke-width:1;"/><polygon fill="#181818" points="969,338.2579,975.9087,331.2387,970.7578,333.5771,968.4194,328.4262,969,338.2579" style="stroke:#181818;stroke-width:1;"/></g><!--link Categories to min--><g class="link" data-entity-1="ent0006" data-entity-2="ent0019" data-link-type="dependency" data-source-line="32" id="lnk21"><path d="M890.09,242.1379 C896.78,251.5479 903.7,262.8179 908,274.0679 C916.71,296.8379 917.8695,320.4481 917.9695,332.3181" fill="none" id="Categories-to-min" style="stroke:#181818;stroke-width:1;"/><polygon fill="#181818" points="918.02,338.3179,921.944,329.2845,917.9779,333.3181,913.9443,329.3519,918.02,338.3179" style="stroke:#181818;stroke-width:1;"/></g><!--link cp to regex--><g class="link" data-entity-1="ent0024" data-entity-2="ent0025" data-link-type="dependency" data-source-line="42" id="lnk28"><path d="M406.99,641.9179 C342.38,659.8679 259.3511,682.952 194.9511,700.842" fill="none" id="cp-to-regex" style="stroke:#181818;stroke-width:1;"/><polygon fill="#181818" points="189.17,702.4479,198.9123,703.893,193.9876,701.1096,196.771,696.1849,189.17,702.4479" style="stroke:#181818;stroke-width:1;"/></g><!--link cp to cosine--><g class="link" data-entity-1="ent0024" data-entity-2="ent0026" data-link-type="dependency" data-source-line="43" id="lnk29"><path d="M448.39,642.3179 C416.57,660.0479 378.5208,681.2466 346.7308,698.9666" fill="none" id="cp-to-cosine" style="stroke:#181818;stroke-width:1;"/><polygon fill="#181818" points="341.49,701.8879,351.2987,700.9999,345.8573,699.4535,347.4037,694.0121,341.49,701.8879" style="stroke:#181818;stroke-width:1;"/></g><!--link cp to llm--><g class="link" data-entity-1="ent0024" data-entity-2="ent0027" data-link-type="dependency" data-source-line="44" id="lnk30"><path d="M491.22,642.3179 C491.39,660.0479 491.5524,678.1682 491.7224,695.8882" fill="none" id="cp-to-llm" style="stroke:#181818;stroke-width:1;"/><polygon fill="#181818" points="491.78,701.8879,495.6935,692.85,491.732,696.8881,487.6938,692.9267,491.78,701.8879" style="stroke:#181818;stroke-width:1;"/></g><!--link regex to cosine--><g class="link" data-entity-1="ent0025" data-entity-2="ent0026" data-link-type="dependency" data-source-line="46" id="lnk31"><path d="M189.31,726.5679 C201.02,726.5679 206.73,726.5679 218.44,726.5679" fill="none" id="regex-to-cosine" style="stroke:#181818;stroke-width:1;stroke-dasharray:7,7;"/><polygon fill="#181818" points="224.44,726.5679,215.44,722.5679,219.44,726.5679,215.44,730.5679,224.44,726.5679" style="stroke:#181818;stroke-width:1;"/></g><!--link cosine to llm--><g class="link" data-entity-1="ent0026" data-entity-2="ent0027" data-link-type="dependency" data-source-line="47" id="lnk32"><path d="M373.64,726.5679 C385.2,726.5679 390.75,726.5679 402.31,726.5679" fill="none" id="cosine-to-llm" style="stroke:#181818;stroke-width:1;stroke-dasharray:7,7;"/><polygon fill="#181818" points="408.31,726.5679,399.31,722.5679,403.31,726.5679,399.31,730.5679,408.31,726.5679" style="stroke:#181818;stroke-width:1;"/></g><!--link pdbd to dbd--><g class="link" data-entity-1="ent0035" data-entity-2="ent0038" data-link-type="dependency" data-source-line="60" id="lnk41"><path d="M669.28,732.7079 C667.32,746.5779 662.6757,779.5464 659.1057,804.9264" fill="none" id="pdbd-to-dbd" style="stroke:#181818;stroke-width:1;"/><polygon fill="#181818" points="658.27,810.8679,663.4846,802.5128,658.9665,805.9167,655.5626,801.3985,658.27,810.8679" style="stroke:#181818;stroke-width:1;"/></g><!--link ps3d to s3d--><g class="link" data-entity-1="ent0036" data-entity-2="ent0039" data-link-type="dependency" data-source-line="61" id="lnk42"><path d="M727.72,732.7079 C729.68,746.5779 734.3243,779.5464 737.8943,804.9264" fill="none" id="ps3d-to-s3d" style="stroke:#181818;stroke-width:1;"/><polygon fill="#181818" points="738.73,810.8679,741.4374,801.3985,738.0335,805.9167,733.5154,802.5128,738.73,810.8679" style="stroke:#181818;stroke-width:1;"/></g><!--link plocald to locald--><g class="link" data-entity-1="ent0037" data-entity-2="ent0040" data-link-type="dependency" data-source-line="62" id="lnk43"><path d="M776.7,732.7079 C784,746.5779 801.6685,780.1769 815.0085,805.5569" fill="none" id="plocald-to-locald" style="stroke:#181818;stroke-width:1;"/><polygon fill="#181818" points="817.8,810.8679,817.1534,801.0403,815.4737,806.442,810.072,804.7624,817.8,810.8679" style="stroke:#181818;stroke-width:1;"/></g><!--link Processor to mp--><g class="link" data-entity-1="ent0017" data-entity-2="ent0023" data-link-type="dependency" data-source-line="65" id="lnk44"><path d="M851.0819,453.5679 C850.69,453.5679 850.2981,453.5679 849.9063,453.5679 C849.1225,453.5679 848.3388,453.5679 847.555,453.5679 C844.42,453.5679 841.285,453.5679 838.15,453.5679 C825.61,453.5679 813.0701,453.5679 800.5302,453.5679 C775.4503,453.5679 750.3706,453.5679 725.2913,453.5679 C675.1325,453.5679 630.975,453.5679 580.82,453.5679" fill="none" id="Processor-to-mp" style="stroke:#181818;stroke-width:1;"/><polygon fill="#181818" points="574.82,453.5679,583.82,457.5679,579.82,453.5679,583.82,449.5679,574.82,453.5679" style="stroke:#181818;stroke-width:1;"/></g><!--link mp to cp--><g class="link" data-entity-1="ent0023" data-entity-2="ent0024" data-link-type="dependency" data-source-line="66" id="lnk45"><path d="M491,478.1279 C491,508.8379 491,556.2579 491,586.9879" fill="none" id="mp-to-cp" style="stroke:#181818;stroke-width:1;"/><polygon fill="#181818" points="491,592.9879,495,583.9879,491,587.9879,487,583.9879,491,592.9879" style="stroke:#181818;stroke-width:1;"/></g><!--link cp to dest--><g class="link" data-entity-1="ent0024" data-entity-2="ent0034" data-link-type="dependency" data-source-line="67" id="lnk46"><path d="M575.35,617.5679 C592.53,617.5679 609.71,617.5679 626.89,617.5679 C631.185,617.5679 635.48,617.5679 639.775,617.5679 C641.9225,617.5679 644.07,617.5679 646.2175,617.5679 C647.2913,617.5679 648.365,617.5679 649.4388,617.5679 C649.9756,617.5679 650.5125,617.5679 651.0494,617.5679 C651.3178,617.5679 645.5863,617.5679 645.8547,617.5679" fill="none" id="cp-to-dest" style="stroke:#181818;stroke-width:1;"/><polygon fill="#181818" points="651.8547,617.5679,642.8547,613.5679,646.8547,617.5679,642.8547,621.5679,651.8547,617.5679" style="stroke:#181818;stroke-width:1;"/></g><?plantuml-src TLFBJiCm4BpdArQvjvVUaH0WBaLKmAtYuDfBiEJ4rjeHBOX_nyyuYKfkkxCpddt4IQSGsaSSa9Y2M-AVqY5t8s7RD1_4Ue_UCyVWLO_4qRR0B0WBFmtuJtZan2o2E2rZkrl6IdEccfWxtZ67dIQ9zZqbdj1QreKmaKwm4VfhsDn0GTRvAf4eTdUTCiklAT7HTTOIcX5_fv4y-q6XTSISr4ESYIQUXtBSwwv3oisz4UCbuBetUi31mO6q7wRL5AWrI0BXCveSj12bkHokvlkS_mt6IWUmyPu3e_gEgL1St1-ONxP2LLwMGnS53UdIGvQhtjxZYsQnmiiAvgPPzTc-O3SgHl1mDXHUojCYxF2yhhtJtWd2g-obfqXtITt7xBfslt-QDlDTjw1KdosOQO6pjsfohbgp4proOBibsNswxNPPdspEm42hjp7PGb7k2kxziSWX-io_aCYJhZtDQcA53rS7eSTfzqQSnB-OtVsFnUCM-MuM_sWR_h1KLSGhnfKUHSIAUCMYP1f_4ezuS3WDjWW6QrEoA6LFTGj9nK_qEBklSCEcwKqwSDE4jSKD17a_g-OF?></g></svg>