<?plantuml 1.2026.2?><svg xmlns="http://www.w3.org/2000/svg" xmlns:xlink="http://www.w3.org/1999/xlink" contentStyleType="text/css" data-diagram-type="DESCRIPTION" height="881px" preserveAspectRatio="none" style="width:1535px;height:881px;background:#FFFFFF;" version="1.1" viewBox="0 0 1535 881" width="1535px" zoomAndPan="magnify"><title>General Architecture</title><defs/><g><g class="title" data-source-line="2"><text fill="#000000" font-family="sans-serif" font-size="14" font-weight="bold" lengthAdjust="spacing" textLength="146.7334" x="687.1333" y="24.9659">General Architecture</text></g><!--cluster ds--><g class="cluster" data-qualified-name="ds" data-source-line="4" id="ent0002"><rect fill="none" height="211" rx="2.5" ry="2.5" style="stroke:#181818;stroke-width:1;" width="283" x="718" y="47.0679"/><path d="M819.3496,47.0679 L819.3496,59.1358 L809.3496,69.1358 L718,69.1358" fill="none" style="stroke:#181818;stroke-width:1;"/><text fill="#000000" font-family="sans-serif" font-size="14" font-weight="bold" lengthAdjust="spacing" textLength="91.3496" x="721" y="63.0339">Data Sources</text></g><!--cluster orc--><g class="cluster" data-qualified-name="orc" data-source-line="22" id="ent0014"><rect fill="none" height="230.5" rx="2.5" ry="2.5" style="stroke:#181818;stroke-width:1;" width="393" x="615" y="282.0679"/><path d="M723.2236,282.0679 L723.2236,294.1358 L713.2236,304.1358 L615,304.1358" fill="none" style="stroke:#181818;stroke-width:1;"/><text fill="#000000" font-family="sans-serif" font-size="14" font-weight="bold" lengthAdjust="spacing" textLength="98.2236" x="618" y="298.0339">Orchestration</text></g><!--cluster Processor--><g class="cluster" data-qualified-name="orc.Processor" data-source-line="25" id="ent0017"><rect fill="none" height="144" rx="2.5" ry="2.5" style="stroke:#181818;stroke-width:1;" width="83" x="859" y="344.5679"/><rect fill="none" height="10" style="stroke:#181818;stroke-width:1;" width="15" x="922" y="349.5679"/><rect fill="none" height="2" style="stroke:#181818;stroke-width:1;" width="4" x="920" y="351.5679"/><rect fill="none" height="2" style="stroke:#181818;stroke-width:1;" width="4" x="920" y="355.5679"/><text fill="#000000" font-family="sans-serif" font-size="14" font-weight="bold" lengthAdjust="spacing" textLength="68.2217" x="866.3891" y="372.5339">Processor</text></g><!--cluster pro--><g class="cluster" data-qualified-name="pro" data-source-line="34" id="ent0022"><rect fill="none" height="376" rx="2.5" ry="2.5" style="stroke:#181818;stroke-width:1;" width="584" x="7" y="391.0679"/><path d="M149.3135,391.0679 L149.3135,403.1358 L139.3135,413.1358 L7,413.1358" fill="none" style="stroke:#181818;stroke-width:1;"/><text fill="#000000" font-family="sans-serif" font-size="14" font-weight="bold" lengthAdjust="spacing" textLength="132.3135" x="10" y="407.0339">Parallel Processing</text></g><!--cluster dd--><g class="cluster" data-qualified-name="dd" data-source-line="50" id="ent0033"><rect fill="none" height="338.5" rx="2.5" ry="2.5" style="stroke:#181818;stroke-width:1;" width="256" x="615" y="536.5679"/><path d="M865.8691,536.5679 L865.8691,548.6358 L855.8691,558.6358 L615,558.6358" fill="none" style="stroke:#181818;stroke-width:1;"/><text fill="#000000" font-family="sans-serif" font-size="14" font-weight="bold" lengthAdjust="spacing" textLength="240.8691" x="618" y="552.5339">Categorized Message Destinations</text></g><!--cluster dest--><g class="cluster" data-qualified-name="dd.dest" data-source-line="51" id="ent0034"><rect fill="none" height="144" rx="2.5" ry="2.5" style="stroke:#181818;stroke-width:1;" width="140" x="652" y="582.5679"/><rect fill="none" height="10" style="stroke:#181818;stroke-width:1;" width="15" x="772" y="587.5679"/><rect fill="none" height="2" style="stroke:#181818;stroke-width:1;" width="4" x="770" y="589.5679"/><rect fill="none" height="2" style="stroke:#181818;stroke-width:1;" width="4" x="770" y="593.5679"/><text fill="#000000" font-family="sans-serif" font-size="14" font-weight="bold" lengthAdjust="spacing" textLength="81.8017" x="681.0992" y="610.5339">Destination</text></g><!--cluster Analysis and Visualization--><g class="cluster" data-qualified-name="Analysis and Visualization" data-source-line="65" id="ent0044"><rect fill="none" height="726" rx="2.5" ry="2.5" style="stroke:#181818;stroke-width:1;" width="497" x="1032" y="57.0679"/><path d="M1223.5513,57.0679 L1223.5513,69.1358 L1213.5513,79.1358 L1032,79.1358" fill="none" style="stroke:#181818;stroke-width:1;"/><text fill="#000000" font-family="sans-serif" font-size="14" font-weight="bold" lengthAdjust="spacing" textLength="181.5513" x="1035" y="73.0339">Analysis and Visualization</text></g><!--cluster dw--><g class="cluster" data-qualified-name="Analysis and Visualization.dw" data-source-line="66" id="ent0045"><path d="M1044,119.0679 C1044,109.0679 1132.5,109.0679 1132.5,109.0679 C1132.5,109.0679 1221,109.0679 1221,119.0679 L1221,334.5679 C1221,344.5679 1132.5,344.5679 1132.5,344.5679 C1132.5,344.5679 1044,344.5679 1044,334.5679 L1044,119.0679" fill="none" style="stroke:#181818;stroke-width:1;"/><path d="M1044,119.0679 C1044,129.0679 1132.5,129.0679 1132.5,129.0679 C1132.5,129.0679 1221,129.0679 1221,119.0679" fill="none" style="stroke:#181818;stroke-width:1;"/><text fill="#000000" font-family="sans-serif" font-size="14" font-weight="bold" lengthAdjust="spacing" textLength="115.9055" x="1074.5472" y="146.0339">Data Warehouse</text></g><!--cluster grafana--><g class="cluster" data-qualified-name="Analysis and Visualization.grafana" data-source-line="74" id="ent0051"><rect fill="none" height="313.5" rx="2.5" ry="2.5" style="stroke:#181818;stroke-width:1;" width="415" x="1098" y="453.5679"/><rect fill="none" height="10" style="stroke:#181818;stroke-width:1;" width="15" x="1493" y="458.5679"/><rect fill="none" height="2" style="stroke:#181818;stroke-width:1;" width="4" x="1491" y="460.5679"/><rect fill="none" height="2" style="stroke:#181818;stroke-width:1;" width="4" x="1491" y="464.5679"/><text fill="#000000" font-family="sans-serif" font-size="14" font-weight="bold" lengthAdjust="spacing" textLength="56.4758" x="1277.2621" y="481.5339">Grafana</text></g><!--entity db--><g class="entity" data-qualified-name="ds.db" data-source-line="5" id="ent0003"><path d="M841.5,95.0679 C841.5,85.0679 860.11,85.0679 860.11,85.0679 C860.11,85.0679 878.7199,85.0679 878.7199,95.0679 L878.7199,123.1358 C878.7199,133.1358 860.11,133.1358 860.11,133.1358 C860.11,133.1358 841.5,133.1358 841.5,123.1358 L841.5,95.0679" fill="#F1F1F1" style="stroke:#181818;stroke-width:0.5;"/><path d="M841.5,95.0679 C841.5,105.0679 860.11,105.0679 860.11,105.0679 C860.11,105.0679 878.7199,105.0679 878.7199,95.0679" fill="none" style="stroke:#181818;stroke-width:0.5;"/><text fill="#000000" font-family="sans-serif" font-size="14" lengthAdjust="spacing" textLength="17.2199" x="851.5" y="124.0339">db</text></g><!--entity s3--><g class="entity" data-qualified-name="ds.s3" data-source-line="6" id="ent0004"><path d="M750,95.0679 C750,85.0679 778.0319,85.0679 778.0319,85.0679 C778.0319,85.0679 806.0639,85.0679 806.0639,95.0679 L806.0639,123.1358 C806.0639,133.1358 778.0319,133.1358 778.0319,133.1358 C778.0319,133.1358 750,133.1358 750,123.1358 L750,95.0679" fill="#F1F1F1" style="stroke:#181818;stroke-width:0.5;"/><path d="M750,95.0679 C750,105.0679 778.0319,105.0679 778.0319,105.0679 C778.0319,105.0679 806.0639,105.0679 806.0639,95.0679" fill="none" style="stroke:#181818;stroke-width:0.5;"/><text fill="#000000" font-family="sans-serif" font-size="14" lengthAdjust="spacing" textLength="36.0639" x="760" y="124.0339">cloud</text></g><!--entity local--><g class="entity" data-qualified-name="ds.local" data-source-line="7" id="ent0005"><path d="M914,95.0679 C914,85.0679 939.1339,85.0679 939.1339,85.0679 C939.1339,85.0679 964.2679,85.0679 964.2679,95.0679 L964.2679,123.1358 C964.2679,133.1358 939.1339,133.1358 939.1339,133.1358 C939.1339,133.1358 914,133.1358 914,123.1358 L914,95.0679" fill="#F1F1F1" style="stroke:#181818;stroke-width:0.5;"/><path d="M914,95.0679 C914,105.0679 939.1339,105.0679 939.1339,105.0679 C939.1339,105.0679 964.2679,105.0679 964.2679,95.0679" fill="none" style="stroke:#181818;stroke-width:0.5;"/><text fill="#000000" font-family="sans-serif" font-size="14" lengthAdjust="spacing" textLength="30.2679" x="924" y="124.0339">local</text></g><!--entity Categories--><g class="entity" data-qualified-name="ds.Categories" data-source-line="9" id="ent0006"><rect fill="#F1F1F1" height="49.0679" rx="2.5" ry="2.5" style="stroke:#181818;stroke-width:0.5;" width="110.7277" x="874.5" y="193.0679"/><rect fill="#F1F1F1" height="10" style="stroke:#181818;stroke-width:0.5;" width="15" x="965.2277" y="198.0679"/><rect fill="#F1F1F1" height="2" style="stroke:#181818;stroke-width:0.5;" width="4" x="963.2277" y="200.0679"/><rect fill="#F1F1F1" height="2" style="stroke:#181818;stroke-width:0.5;" width="4" x="963.2277" y="204.0679"/><text fill="#000000" font-family="sans-serif" font-size="14" lengthAdjust="spacing" textLength="70.7277" x="889.5" y="228.0339">Categories</text></g><!--entity Messages--><g class="entity" data-qualified-name="ds.Messages" data-source-line="10" id="ent0007"><rect fill="#F1F1F1" height="49.0679" rx="2.5" ry="2.5" style="stroke:#181818;stroke-width:0.5;" width="105.0718" x="734.5" y="193.0679"/><rect fill="#F1F1F1" height="10" style="stroke:#181818;stroke-width:0.5;" width="15" x="819.5718" y="198.0679"/><rect fill="#F1F1F1" height="2" style="stroke:#181818;stroke-width:0.5;" width="4" x="817.5718" y="200.0679"/><rect fill="#F1F1F1" height="2" style="stroke:#181818;stroke-width:0.5;" width="4" x="817.5718" y="204.0679"/><text fill="#000000" font-family="sans-serif" font-size="14" lengthAdjust="spacing" textLength="65.0718" x="749.5" y="228.0339">Messages</text></g><!--entity Logger--><g class="entity" data-qualified-name="orc.Logger" data-source-line="23" id="ent0015"><rect fill="#F1F1F1" height="49.0679" rx="2.5" ry="2.5" style="stroke:#181818;stroke-width:0.5;" width="86.7038" x="748.5" y="320.0679"/><rect fill="#F1F1F1" height="10" style="stroke:#181818;stroke-width:0.5;" width="15" x="815.2038" y="325.0679"/><rect fill="#F1F1F1" height="2" style="stroke:#181818;stroke-width:0.5;" width="4" x="813.2038" y="327.0679"/><rect fill="#F1F1F1" height="2" style="stroke:#181818;stroke-width:0.5;" width="4" x="813.2038" y="331.0679"/><text fill="#000000" font-family="sans-serif" font-size="14" lengthAdjust="spacing" textLength="46.7038" x="763.5" y="355.0339">Logger</text></g><!--entity Tracer--><g class="entity" data-qualified-name="orc.Tracer" data-source-line="24" id="ent0016"><rect fill="#F1F1F1" height="49.0679" rx="2.5" ry="2.5" style="stroke:#181818;stroke-width:0.5;" width="81.8178" x="631" y="320.0679"/><rect fill="#F1F1F1" height="10" style="stroke:#181818;stroke-width:0.5;" width="15" x="692.8178" y="325.0679"/><rect fill="#F1F1F1" height="2" style="stroke:#181818;stroke-width:0.5;" width="4" x="690.8178" y="327.0679"/><rect fill="#F1F1F1" height="2" style="stroke:#181818;stroke-width:0.5;" width="4" x="690.8178" y="331.0679"/><text fill="#000000" font-family="sans-serif" font-size="14" lengthAdjust="spacing" textLength="41.8178" x="646" y="355.0339">Tracer</text></g><g class="entity" data-qualified-name="orc.Processor.cin" data-source-line="26" id="ent0018"><text fill="#000000" font-family="sans-serif" font-size="14" lengthAdjust="spacing" textLength="3.64" x="875.18" y="322.4659">&#160;</text><rect fill="#F1F1F1" height="12" style="stroke:#181818;stroke-width:1.5;" width="12" x="871" y="338.5679"/></g><g class="entity" data-qualified-name="orc.Processor.min" data-source-line="27" id="ent0019"><text fill="#000000" font-family="sans-serif" font-size="14" lengthAdjust="spacing" textLength="3.64" x="922.18" y="322.4659">&#160;</text><rect fill="#F1F1F1" height="12" style="stroke:#181818;stroke-width:1.5;" width="12" x="918" y="338.5679"/></g><!--entity mp--><g class="entity" data-qualified-name="pro.mp" data-source-line="35" id="ent0023"><rect fill="#F1F1F1" height="49.0679" rx="2.5" ry="2.5" style="stroke:#181818;stroke-width:0.5;" width="167.0075" x="407.5" y="429.0679"/><rect fill="#F1F1F1" height="10" style="stroke:#181818;stroke-width:0.5;" width="15" x="554.5075" y="434.0679"/><rect fill="#F1F1F1" height="2" style="stroke:#181818;stroke-width:0.5;" width="4" x="552.5075" y="436.0679"/><rect fill="#F1F1F1" height="2" style="stroke:#181818;stroke-width:0.5;" width="4" x="552.5075" y="440.0679"/><text fill="#000000" font-family="sans-serif" font-size="14" lengthAdjust="spacing" textLength="127.0075" x="422.5" y="464.0339">Message Processor</text></g><!--entity cp--><g class="entity" data-qualified-name="pro.cp" data-source-line="36" id="ent0024"><rect fill="#F1F1F1" height="49.0679" rx="2.5" ry="2.5" style="stroke:#181818;stroke-width:0.5;" width="168.2955" x="407" y="593.0679"/><rect fill="#F1F1F1" height="10" style="stroke:#181818;stroke-width:0.5;" width="15" x="555.2955" y="598.0679"/><rect fill="#F1F1F1" height="2" style="stroke:#181818;stroke-width:0.5;" width="4" x="553.2955" y="600.0679"/><rect fill="#F1F1F1" height="2" style="stroke:#181818;stroke-width:0.5;" width="4" x="553.2955" y="604.0679"/><text fill="#000000" font-family="sans-serif" font-size="14" lengthAdjust="spacing" textLength="128.2955" x="422" y="628.0339">Category Processor</text></g><!--entity regex--><g class="entity" data-qualified-name="pro.regex" data-source-line="38" id="ent0025"><rect fill="#F1F1F1" height="49.0679" rx="2.5" ry="2.5" style="stroke:#181818;stroke-width:0.5;" width="166.3775" x="23" y="702.0679"/><rect fill="#F1F1F1" height="10" style="stroke:#181818;stroke-width:0.5;" width="15" x="169.3775" y="707.0679"/><rect fill="#F1F1F1" height="2" style="stroke:#181818;stroke-width:0.5;" width="4" x="167.3775" y="709.0679"/><rect fill="#F1F1F1" height="2" style="stroke:#181818;stroke-width:0.5;" width="4" x="167.3775" y="713.0679"/><text fill="#000000" font-family="sans-serif" font-size="14" lengthAdjust="spacing" textLength="126.3775" x="38" y="737.0339">Regular Expression</text></g><!--entity cosine--><g class="entity" data-qualified-name="pro.cosine" data-source-line="39" id="ent0026"><rect fill="#F1F1F1" height="49.0679" rx="2.5" ry="2.5" style="stroke:#181818;stroke-width:0.5;" width="148.8776" x="426.5" y="702.0679"/><rect fill="#F1F1F1" height="10" style="stroke:#181818;stroke-width:0.5;" width="15" x="555.3776" y="707.0679"/><rect fill="#F1F1F1" height="2" style="stroke:#181818;stroke-width:0.5;" width="4" x="553.3776" y="709.0679"/><rect fill="#F1F1F1" height="2" style="stroke:#181818;stroke-width:0.5;" width="4" x="553.3776" y="713.0679"/><text fill="#000000" font-family="sans-serif" font-size="14" lengthAdjust="spacing" textLength="108.8776" x="441.5" y="737.0339">Cosine Similarity</text></g><!--entity llm--><g class="entity" data-qualified-name="pro.llm" data-source-line="40" id="ent0027"><rect fill="#F1F1F1" height="49.0679" rx="2.5" ry="2.5" style="stroke:#181818;stroke-width:0.5;" width="167.3575" x="224.5" y="702.0679"/><rect fill="#F1F1F1" height="10" style="stroke:#181818;stroke-width:0.5;" width="15" x="371.8575" y="707.0679"/><rect fill="#F1F1F1" height="2" style="stroke:#181818;stroke-width:0.5;" width="4" x="369.8575" y="709.0679"/><rect fill="#F1F1F1" height="2" style="stroke:#181818;stroke-width:0.5;" width="4" x="369.8575" y="713.0679"/><text fill="#000000" font-family="sans-serif" font-size="14" lengthAdjust="spacing" textLength="127.3575" x="239.5" y="737.0339">LLM Categorization</text></g><!--entity dbd--><g class="entity" data-qualified-name="dd.dbd" data-source-line="56" id="ent0038"><path d="M631,821.0679 C631,811.0679 655.0699,811.0679 655.0699,811.0679 C655.0699,811.0679 679.1399,811.0679 679.1399,821.0679 L679.1399,849.1358 C679.1399,859.1358 655.0699,859.1358 655.0699,859.1358 C655.0699,859.1358 631,859.1358 631,849.1358 L631,821.0679" fill="#F1F1F1" style="stroke:#181818;stroke-width:0.5;"/><path d="M631,821.0679 C631,831.0679 655.0699,831.0679 655.0699,831.0679 C655.0699,831.0679 679.1399,831.0679 679.1399,821.0679" fill="none" style="stroke:#181818;stroke-width:0.5;"/><text fill="#000000" font-family="sans-serif" font-size="14" lengthAdjust="spacing" textLength="17.2199" x="644.64" y="850.0339">db</text></g><!--entity s3d--><g class="entity" data-qualified-name="dd.s3d" data-source-line="57" id="ent0039"><path d="M714,821.0679 C714,811.0679 742.0319,811.0679 742.0319,811.0679 C742.0319,811.0679 770.0639,811.0679 770.0639,821.0679 L770.0639,849.1358 C770.0639,859.1358 742.0319,859.1358 742.0319,859.1358 C742.0319,859.1358 714,859.1358 714,849.1358 L714,821.0679" fill="#F1F1F1" style="stroke:#181818;stroke-width:0.5;"/><path d="M714,821.0679 C714,831.0679 742.0319,831.0679 742.0319,831.0679 C742.0319,831.0679 770.0639,831.0679 770.0639,821.0679" fill="none" style="stroke:#181818;stroke-width:0.5;"/><text fill="#000000" font-family="sans-serif" font-size="14" lengthAdjust="spacing" textLength="36.0639" x="724" y="850.0339">cloud</text></g><!--entity locald--><g class="entity" data-qualified-name="dd.locald" data-source-line="58" id="ent0040"><path d="M805,821.0679 C805,811.0679 830.1339,811.0679 830.1339,811.0679 C830.1339,811.0679 855.2679,811.0679 855.2679,821.0679 L855.2679,849.1358 C855.2679,859.1358 830.1339,859.1358 830.1339,859.1358 C830.1339,859.1358 805,859.1358 805,849.1358 L805,821.0679" fill="#F1F1F1" style="stroke:#181818;stroke-width:0.5;"/><path d="M805,821.0679 C805,831.0679 830.1339,831.0679 830.1339,831.0679 C830.1339,831.0679 855.2679,831.0679 855.2679,821.0679" fill="none" style="stroke:#181818;stroke-width:0.5;"/><text fill="#000000" font-family="sans-serif" font-size="14" lengthAdjust="spacing" textLength="30.2679" x="815" y="850.0339">local</text></g><g class="entity" data-qualified-name="dd.dest.pdbd" data-source-line="52" id="ent0035"><text fill="#000000" font-family="sans-serif" font-size="14" lengthAdjust="spacing" textLength="3.64" x="668.18" y="747.5339">&#160;</text><rect fill="#F1F1F1" height="12" style="stroke:#181818;stroke-width:1.5;" width="12" x="664" y="720.5679"/></g><g class="entity" data-qualified-name="dd.dest.ps3d" data-source-line="53" id="ent0036"><text fill="#000000" font-family="sans-serif" font-size="14" lengthAdjust="spacing" textLength="3.64" x="725.18" y="747.5339">&#160;</text><rect fill="#F1F1F1" height="12" style="stroke:#181818;stroke-width:1.5;" width="12" x="721" y="720.5679"/></g><g class="entity" data-qualified-name="dd.dest.plocald" data-source-line="54" id="ent0037"><text fill="#000000" font-family="sans-serif" font-size="14" lengthAdjust="spacing" textLength="3.64" x="772.18" y="747.5339">&#160;</text><rect fill="#F1F1F1" height="12" style="stroke:#181818;stroke-width:1.5;" width="12" x="768" y="720.5679"/></g><g class="entity" data-qualified-name="Analysis and Visualization.dw.pdwds" data-source-line="67" id="ent0046"><text fill="#000000" font-family="sans-serif" font-size="14" lengthAdjust="spacing" textLength="3.64" x="1060.18" y="86.9659">&#160;</text><rect fill="#F1F1F1" height="12" style="stroke:#181818;stroke-width:1.5;" width="12" x="1056" y="103.0679"/></g><g class="entity" data-qualified-name="Analysis and Visualization.dw.pdworc" data-source-line="68" id="ent0047"><text fill="#000000" font-family="sans-serif" font-size="14" lengthAdjust="spacing" textLength="3.64" x="1107.18" y="86.9659">&#160;</text><rect fill="#F1F1F1" height="12" style="stroke:#181818;stroke-width:1.5;" width="12" x="1103" y="103.0679"/></g><g class="entity" data-qualified-name="Analysis and Visualization.dw.pdwpro" data-source-line="69" id="ent0048"><text fill="#000000" font-family="sans-serif" font-size="14" lengthAdjust="spacing" textLength="3.64" x="1154.18" y="86.9659">&#160;</text><rect fill="#F1F1F1" height="12" style="stroke:#181818;stroke-width:1.5;" width="12" x="1150" y="103.0679"/></g><g class="entity" data-qualified-name="Analysis and Visualization.dw.pdwpdd" data-source-line="70" id="ent0049"><text fill="#000000" font-family="sans-serif" font-size="14" lengthAdjust="spacing" textLength="3.64" x="1201.18" y="86.9659">&#160;</text><rect fill="#F1F1F1" height="12" style="stroke:#181818;stroke-width:1.5;" width="12" x="1197" y="103.0679"/></g><g class="entity" data-qualified-name="Analysis and Visualization.dw.dwo" data-source-line="71" id="ent0050"><text fill="#000000" font-family="sans-serif" font-size="14" lengthAdjust="spacing" textLength="3.64" x="1122.18" y="365.5339">&#160;</text><rect fill="#F1F1F1" height="12" style="stroke:#181818;stroke-width:1.5;" width="12" x="1118" y="338.5679"/></g><g class="entity" data-qualified-name="Analysis and Visualization.grafana.grafanadw" data-source-line="75" id="ent0052"><text fill="#000000" font-family="sans-serif" font-size="14" lengthAdjust="spacing" textLength="3.64" x="1114.18" y="431.4659">&#160;</text><rect fill="#F1F1F1" height="12" style="stroke:#181818;stroke-width:1.5;" width="12" x="1110" y="447.5679"/></g><!--entity Infrastructure View--><g class="entity" data-qualified-name="Analysis and Visualization.grafana.Infrastructure View" data-source-line="77" id="ent0053"><rect fill="#F1F1F1" height="49.0679" rx="2.5" ry="2.5" style="stroke:#181818;stroke-width:0.5;" width="166.6995" x="1171.5" y="593.0679"/><rect fill="#F1F1F1" height="10" style="stroke:#181818;stroke-width:0.5;" width="15" x="1318.1995" y="598.0679"/><rect fill="#F1F1F1" height="2" style="stroke:#181818;stroke-width:0.5;" width="4" x="1316.1995" y="600.0679"/><rect fill="#F1F1F1" height="2" style="stroke:#181818;stroke-width:0.5;" width="4" x="1316.1995" y="604.0679"/><text fill="#000000" font-family="sans-serif" font-size="14" lengthAdjust="spacing" textLength="126.6995" x="1186.5" y="628.0339">Infrastructure View</text></g><!--entity Tracing View--><g class="entity" data-qualified-name="Analysis and Visualization.grafana.Tracing View" data-source-line="78" id="ent0054"><rect fill="#F1F1F1" height="49.0679" rx="2.5" ry="2.5" style="stroke:#181818;stroke-width:0.5;" width="123.5657" x="1373" y="593.0679"/><rect fill="#F1F1F1" height="10" style="stroke:#181818;stroke-width:0.5;" width="15" x="1476.5657" y="598.0679"/><rect fill="#F1F1F1" height="2" style="stroke:#181818;stroke-width:0.5;" width="4" x="1474.5657" y="600.0679"/><rect fill="#F1F1F1" height="2" style="stroke:#181818;stroke-width:0.5;" width="4" x="1474.5657" y="604.0679"/><text fill="#000000" font-family="sans-serif" font-size="14" lengthAdjust="spacing" textLength="83.5657" x="1388" y="628.0339">Tracing View</text></g><!--entity Data View--><g class="entity" data-qualified-name="Analysis and Visualization.grafana.Data View" data-source-line="79" id="ent0055"><rect fill="#F1F1F1" height="49.0679" rx="2.5" ry="2.5" style="stroke:#181818;stroke-width:0.5;" width="105.5337" x="1202" y="702.0679"/><rect fill="#F1F1F1" height="10" style="stroke:#181818;stroke-width:0.5;" width="15" x="1287.5337" y="707.0679"/><rect fill="#F1F1F1" height="2" style="stroke:#181818;stroke-width:0.5;" width="4" x="1285.5337" y="709.0679"/><rect fill="#F1F1F1" height="2" style="stroke:#181818;stroke-width:0.5;" width="4" x="1285.5337" y="713.0679"/><text fill="#000000" font-family="sans-serif" font-size="14" lengthAdjust="spacing" textLength="65.5337" x="1217" y="737.0339">Data View</text></g><!--entity Reports View--><g class="entity" data-qualified-name="Analysis and Visualization.grafana.Reports View" data-source-line="80" id="ent0056"><rect fill="#F1F1F1" height="49.0679" rx="2.5" ry="2.5" style="stroke:#181818;stroke-width:0.5;" width="125.7777" x="1343" y="702.0679"/><rect fill="#F1F1F1" height="10" style="stroke:#181818;stroke-width:0.5;" width="15" x="1448.7777" y="707.0679"/><rect fill="#F1F1F1" height="2" style="stroke:#181818;stroke-width:0.5;" width="4" x="1446.7777" y="709.0679"/><rect fill="#F1F1F1" height="2" style="stroke:#181818;stroke-width:0.5;" width="4" x="1446.7777" y="713.0679"/><text fill="#000000" font-family="sans-serif" font-size="14" lengthAdjust="spacing" textLength="85.7777" x="1358" y="737.0339">Reports View</text></g><!--link db to Messages--><g class="link" data-entity-1="ent0003" data-entity-2="ent0007" data-link-type="dependency" data-source-line="12" id="lnk8"><path d="M844.16,133.1779 C832.08,150.7979 818.9034,170.0297 806.7034,187.8197" fill="none" id="db-to-Messages" style="stroke:#181818;stroke-width:1;"/><polygon fill="#181818" points="803.31,192.7679,811.6989,187.6078,806.1378,188.6444,805.1013,183.0833,803.31,192.7679" style="stroke:#181818;stroke-width:1;"/></g><!--link db to Categories--><g class="link" data-entity-1="ent0003" data-entity-2="ent0006" data-link-type="dependency" data-source-line="13" id="lnk9"><path d="M875.19,133.1779 C886.77,150.7979 899.3631,169.9649 911.0631,187.7549" fill="none" id="db-to-Categories" style="stroke:#181818;stroke-width:1;"/><polygon fill="#181818" points="914.36,192.7679,912.7566,183.0504,911.6126,188.5904,906.0726,187.4463,914.36,192.7679" style="stroke:#181818;stroke-width:1;"/></g><!--link s3 to Messages--><g class="link" data-entity-1="ent0004" data-entity-2="ent0007" data-link-type="dependency" data-source-line="15" id="lnk10"><path d="M779.95,133.1779 C781.44,150.7979 782.9859,168.9991 784.4859,186.7891" fill="none" id="s3-to-Messages" style="stroke:#181818;stroke-width:1;"/><polygon fill="#181818" points="784.99,192.7679,788.2197,183.4637,784.5699,187.7856,780.248,184.1358,784.99,192.7679" style="stroke:#181818;stroke-width:1;"/></g><!--link s3 to Categories--><g class="link" data-entity-1="ent0004" data-entity-2="ent0006" data-link-type="dependency" data-source-line="16" id="lnk11"><path d="M806.23,129.8479 C831.73,147.7179 864.3753,170.5962 891.4353,189.5462" fill="none" id="s3-to-Categories" style="stroke:#181818;stroke-width:1;"/><polygon fill="#181818" points="896.35,192.9879,891.2724,184.5488,892.2544,190.1198,886.6834,191.1018,896.35,192.9879" style="stroke:#181818;stroke-width:1;"/></g><!--link local to Messages--><g class="link" data-entity-1="ent0005" data-entity-2="ent0007" data-link-type="dependency" data-source-line="18" id="lnk12"><path d="M913.9,127.6579 C888.44,145.4979 853.7742,169.7855 825.5942,189.5255" fill="none" id="local-to-Messages" style="stroke:#181818;stroke-width:1;"/><polygon fill="#181818" points="820.68,192.9679,830.3463,191.0805,824.7752,190.0992,825.7564,184.5281,820.68,192.9679" style="stroke:#181818;stroke-width:1;"/></g><!--link local to Categories--><g class="link" data-entity-1="ent0005" data-entity-2="ent0006" data-link-type="dependency" data-source-line="19" id="lnk13"><path d="M937.05,133.1779 C935.56,150.7979 934.0141,168.9991 932.5141,186.7891" fill="none" id="local-to-Categories" style="stroke:#181818;stroke-width:1;"/><polygon fill="#181818" points="932.01,192.7679,936.752,184.1358,932.4301,187.7856,928.7803,183.4637,932.01,192.7679" style="stroke:#181818;stroke-width:1;"/></g><!--link Messages to cin--><g class="link" data-entity-1="ent0007" data-entity-2="ent0018" data-link-type="dependency" data-source-line="31" id="lnk20"><path d="M822.26,242.1079 C843.01,256.1079 865.49,271.6279 867,274.0679 C879.95,295.0179 879.2332,320.2026 878.1232,332.4126" fill="none" id="Messages-to-cin" style="stroke:#181818;stroke-width:1;"/><polygon fill="#181818" points="877.58,338.3879,882.3784,329.787,878.0327,333.4085,874.4112,329.0627,877.58,338.3879" style="stroke:#181818;stroke-width:1;"/></g><!--link Categories to min--><g class="link" data-entity-1="ent0006" data-entity-2="ent0019" data-link-type="dependency" data-source-line="32" id="lnk21"><path d="M928.87,242.0779 C927.43,272.0679 925.331,315.995 924.541,332.265" fill="none" id="Categories-to-min" style="stroke:#181818;stroke-width:1;"/><polygon fill="#181818" points="924.25,338.2579,928.6818,329.4625,924.4925,333.2638,920.6912,329.0745,924.25,338.2579" style="stroke:#181818;stroke-width:1;"/></g><!--link cp to regex--><g class="link" data-entity-1="ent0024" data-entity-2="ent0025" data-link-type="dependency" data-source-line="42" id="lnk28"><path d="M406.99,641.9179 C342.38,659.8679 259.3511,682.952 194.9511,700.842" fill="none" id="cp-to-regex" style="stroke:#181818;stroke-width:1;"/><polygon fill="#181818" points="189.17,702.4479,198.9123,703.893,193.9876,701.1096,196.771,696.1849,189.17,702.4479" style="stroke:#181818;stroke-width:1;"/></g><!--link cp to cosine--><g class="link" data-entity-1="ent0024" data-entity-2="ent0026" data-link-type="dependency" data-source-line="43" id="lnk29"><path d="M493.22,642.3179 C494.88,660.0479 496.5704,678.1941 498.2304,695.9141" fill="none" id="cp-to-cosine" style="stroke:#181818;stroke-width:1;"/><polygon fill="#181818" points="498.79,701.8879,501.9331,692.5541,498.3236,696.9097,493.968,693.3002,498.79,701.8879" style="stroke:#181818;stroke-width:1;"/></g><!--link cp to llm--><g class="link" data-entity-1="ent0024" data-entity-2="ent0027" data-link-type="dependency" data-source-line="44" id="lnk30"><path d="M450.39,642.3179 C420.06,660.0479 383.9793,681.139 353.6793,698.859" fill="none" id="cp-to-llm" style="stroke:#181818;stroke-width:1;"/><polygon fill="#181818" points="348.5,701.8879,358.2883,700.7974,352.8161,699.3638,354.2497,693.8916,348.5,701.8879" style="stroke:#181818;stroke-width:1;"/></g><!--link regex to llm--><g class="link" data-entity-1="ent0025" data-entity-2="ent0027" data-link-type="dependency" data-source-line="46" id="lnk31"><path d="M189.25,726.5679 C200.84,726.5679 206.44,726.5679 218.04,726.5679" fill="none" id="regex-to-llm" style="stroke:#181818;stroke-width:1;stroke-dasharray:7,7;"/><polygon fill="#181818" points="224.04,726.5679,215.04,722.5679,219.04,726.5679,215.04,730.5679,224.04,726.5679" style="stroke:#181818;stroke-width:1;"/></g><!--link llm to cosine--><g class="link" data-entity-1="ent0027" data-entity-2="ent0026" data-link-type="dependency" data-source-line="47" id="lnk32"><path d="M391.68,726.5679 C403.21,726.5679 408.74,726.5679 420.27,726.5679" fill="none" id="llm-to-cosine" style="stroke:#181818;stroke-width:1;stroke-dasharray:7,7;"/><polygon fill="#181818" points="426.27,726.5679,417.27,722.5679,421.27,726.5679,417.27,730.5679,426.27,726.5679" style="stroke:#181818;stroke-width:1;"/></g><!--link pdbd to dbd--><g class="link" data-entity-1="ent0035" data-entity-2="ent0038" data-link-type="dependency" data-source-line="60" id="lnk41"><path d="M669.28,732.7079 C667.32,746.5779 662.6757,779.5464 659.1057,804.9264" fill="none" id="pdbd-to-dbd" style="stroke:#181818;stroke-width:1;"/><polygon fill="#181818" points="658.27,810.8679,663.4846,802.5128,658.9665,805.9167,655.5626,801.3985,658.27,810.8679" style="stroke:#181818;stroke-width:1;"/></g><!--link ps3d to s3d--><g class="link" data-entity-1="ent0036" data-entity-2="ent0039" data-link-type="dependency" data-source-line="61" id="lnk42"><path d="M727.72,732.7079 C729.68,746.5779 734.3243,779.5464 737.8943,804.9264" fill="none" id="ps3d-to-s3d" style="stroke:#181818;stroke-width:1;"/><polygon fill="#181818" points="738.73,810.8679,741.4374,801.3985,738.0335,805.9167,733.5154,802.5128,738.73,810.8679" style="stroke:#181818;stroke-width:1;"/></g><!--link plocald to locald--><g class="link" data-entity-1="ent0037" data-entity-2="ent0040" data-link-type="dependency" data-source-line="62" id="lnk43"><path d="M776.7,732.7079 C784,746.5779 801.6685,780.1769 815.0085,805.5569" fill="none" id="plocald-to-locald" style="stroke:#181818;stroke-width:1;"/><polygon fill="#181818" points="817.8,810.8679,817.1534,801.0403,815.4737,806.442,810.072,804.7624,817.8,810.8679" style="stroke:#181818;stroke-width:1;"/></g><!--link dwo to grafanadw--><g class="link" data-entity-1="ent0050" data-entity-2="ent0052" data-link-type="dependency" data-source-line="83" id="lnk57"><path d="M1123.61,350.7279 C1122.27,368.7579 1118.217,422.8846 1116.847,441.2246" fill="none" id="dwo-to-grafanadw" style="stroke:#181818;stroke-width:1;"/><polygon fill="#181818" points="1116.4,447.2079,1121.0593,438.5309,1116.7725,442.2218,1113.0815,437.935,1116.4,447.2079" style="stroke:#181818;stroke-width:1;"/></g><!--reverse link dest to cp--><g class="link" data-entity-1="ent0034" data-entity-2="ent0024" data-link-type="dependency" data-source-line="86" id="lnk58"><path d="M645.8547,617.5679 C645.3178,617.5679 649.9756,617.5679 649.4388,617.5679 C648.365,617.5679 647.2913,617.5679 646.2175,617.5679 C644.07,617.5679 641.9225,617.5679 639.775,617.5679 C635.48,617.5679 631.185,617.5679 626.89,617.5679 C609.71,617.5679 592.53,617.5679 575.35,617.5679" fill="none" id="dest-backto-cp" style="stroke:#181818;stroke-width:1;"/><polygon fill="#181818" points="651.8547,617.5679,642.8547,613.5679,646.8547,617.5679,642.8547,621.5679,651.8547,617.5679" style="stroke:#181818;stroke-width:1;"/></g><!--link Processor to mp--><g class="link" data-entity-1="ent0017" data-entity-2="ent0023" data-link-type="dependency" data-source-line="87" id="lnk59"><path d="M858.1356,453.5679 C857.7438,453.5679 857.3519,453.5679 856.96,453.5679 C850.69,453.5679 844.42,453.5679 838.15,453.5679 C825.61,453.5679 813.0701,453.5679 800.5302,453.5679 C775.4503,453.5679 750.3706,453.5679 725.2913,453.5679 C675.1325,453.5679 630.975,453.5679 580.82,453.5679" fill="none" id="Processor-to-mp" style="stroke:#181818;stroke-width:1;"/><polygon fill="#181818" points="574.82,453.5679,583.82,457.5679,579.82,453.5679,583.82,449.5679,574.82,453.5679" style="stroke:#181818;stroke-width:1;"/></g><!--link mp to cp--><g class="link" data-entity-1="ent0023" data-entity-2="ent0024" data-link-type="dependency" data-source-line="88" id="lnk60"><path d="M491,478.1279 C491,508.8379 491,556.2579 491,586.9879" fill="none" id="mp-to-cp" style="stroke:#181818;stroke-width:1;"/><polygon fill="#181818" points="491,592.9879,495,583.9879,491,587.9879,487,583.9879,491,592.9879" style="stroke:#181818;stroke-width:1;"/></g><?plantuml-src TLLDRzim3BtxLmY-v9HSSYq65ErG34YneXssGz23Oh6E05aI91bkDlI_Z_go52FsANgFf1v9aN7S2I3j4qWmL91xqvsvWywD1jgc-J1qGFQHEahUr6Wwi2sXbZ1B_ZK4FuRCYLeWx7HzxeGQcJUr-sj2g8wA9c371-gWLuQ3VO_0CrXBUt-CJYUoPMgIssyaCqkyX8WkTd_RfSANBa7HRQzhgdBycclp4oi6rXdgk9AXECfqgJh7W-fxC2cvNuPs-T2fGIi9qf4Nex2gLXdlMWunWF-qCewq98JkkBo93md_yi9o1cIBchr7qHqWRvpLlr3ikW2HR-Qo3m6rKJc75AveUmytwgiMNXPqfvj5dkqhzAEWXdp_rCRVbAfbe8VFfUs3GYL0tlZ0qOMxIym-e4lRm-5vxipVqWKXXYH1pmsixYfW7RMWitlm8RkTuVtPxNQH2Mz333MSmfI7CMi2bXyLUSINmcKGcGQ9fJANX2gRO877nMjGuznupKvibRFxTIwyR9OUpTM0jdwyebKENhWmrcsSwoKNGiRQn-21zmhdgkQ0NjeCvaX9Ksb1Z58gUY-fk5Xk2PMC_EPsf6Bk-68TnPNrXneugz52p6PQcIhD9cRN69pcDGg7P9LYgwN7aAdiYyO_6Vf19VKsVVfvMszYsTJCT3KFFoIM2nVI69OurWcczfQTNqSuxki6eOIhx2juIROoI0bXVdCBYr8amqk-suQ9sVeDSQnsXjzBkXbqN5guFJR-JoR7YHtQXDLQORutcx2hAj1tPUC7gyQm7Vy1?></g></svg>