<?plantuml 1.2026.2?><svg xmlns="http://www.w3.org/2000/svg" xmlns:xlink="http://www.w3.org/1999/xlink" contentStyleType="text/css" data-diagram-type="DESCRIPTION" height="626px" preserveAspectRatio="none" style="width:894px;height:626px;background:#FFFFFF;" version="1.1" viewBox="0 0 894 626" width="894px" zoomAndPan="magnify"><title>General Architecture</title><defs/><g><g class="title" data-source-line="2"><text fill="#000000" font-family="sans-serif" font-size="14" font-weight="bold" lengthAdjust="spacing" textLength="146.7334" x="366.6333" y="24.9659">General Architecture</text></g><!--cluster ds--><g class="cluster" data-qualified-name="ds" data-source-line="4" id="ent0002"><rect fill="none" height="211" rx="2.5" ry="2.5" style="stroke:#181818;stroke-width:1;" width="283" x="172" y="47.0679"/><path d="M273.3496,47.0679 L273.3496,59.1358 L263.3496,69.1358 L172,69.1358" fill="none" style="stroke:#181818;stroke-width:1;"/><text fill="#000000" font-family="sans-serif" font-size="14" font-weight="bold" lengthAdjust="spacing" textLength="91.3496" x="175" y="63.0339">Data Sources</text></g><!--cluster orc--><g class="cluster" data-qualified-name="orc" data-source-line="22" id="ent0014"><rect fill="none" height="103" rx="2.5" ry="2.5" style="stroke:#181818;stroke-width:1;" width="377" x="7" y="282.0679"/><path d="M115.2236,282.0679 L115.2236,294.1358 L105.2236,304.1358 L7,304.1358" fill="none" style="stroke:#181818;stroke-width:1;"/><text fill="#000000" font-family="sans-serif" font-size="14" font-weight="bold" lengthAdjust="spacing" textLength="98.2236" x="10" y="298.0339">Orchestration</text></g><!--cluster pro--><g class="cluster" data-qualified-name="pro" data-source-line="31" id="ent0020"><rect fill="none" height="230" rx="2.5" ry="2.5" style="stroke:#181818;stroke-width:1;" width="200" x="408" y="282.0679"/><path d="M550.3135,282.0679 L550.3135,294.1358 L540.3135,304.1358 L408,304.1358" fill="none" style="stroke:#181818;stroke-width:1;"/><text fill="#000000" font-family="sans-serif" font-size="14" font-weight="bold" lengthAdjust="spacing" textLength="132.3135" x="411" y="298.0339">Parallel Processing</text></g><!--cluster dd--><g class="cluster" data-qualified-name="dd" data-source-line="36" id="ent0023"><rect fill="none" height="211" rx="2.5" ry="2.5" style="stroke:#181818;stroke-width:1;" width="256" x="632" y="409.0679"/><path d="M882.8691,409.0679 L882.8691,421.1358 L872.8691,431.1358 L632,431.1358" fill="none" style="stroke:#181818;stroke-width:1;"/><text fill="#000000" font-family="sans-serif" font-size="14" font-weight="bold" lengthAdjust="spacing" textLength="240.8691" x="635" y="425.0339">Categorized Message Destinations</text></g><!--entity db--><g class="entity" data-qualified-name="ds.db" data-source-line="5" id="ent0003"><path d="M217.5,95.0679 C217.5,85.0679 236.11,85.0679 236.11,85.0679 C236.11,85.0679 254.7199,85.0679 254.7199,95.0679 L254.7199,123.1358 C254.7199,133.1358 236.11,133.1358 236.11,133.1358 C236.11,133.1358 217.5,133.1358 217.5,123.1358 L217.5,95.0679" fill="#F1F1F1" style="stroke:#181818;stroke-width:0.5;"/><path d="M217.5,95.0679 C217.5,105.0679 236.11,105.0679 236.11,105.0679 C236.11,105.0679 254.7199,105.0679 254.7199,95.0679" fill="none" style="stroke:#181818;stroke-width:0.5;"/><text fill="#000000" font-family="sans-serif" font-size="14" lengthAdjust="spacing" textLength="17.2199" x="227.5" y="124.0339">db</text></g><!--entity s3--><g class="entity" data-qualified-name="ds.s3" data-source-line="6" id="ent0004"><path d="M375.5,95.0679 C375.5,85.0679 392.857,85.0679 392.857,85.0679 C392.857,85.0679 410.2139,85.0679 410.2139,95.0679 L410.2139,123.1358 C410.2139,133.1358 392.857,133.1358 392.857,133.1358 C392.857,133.1358 375.5,133.1358 375.5,123.1358 L375.5,95.0679" fill="#F1F1F1" style="stroke:#181818;stroke-width:0.5;"/><path d="M375.5,95.0679 C375.5,105.0679 392.857,105.0679 392.857,105.0679 C392.857,105.0679 410.2139,105.0679 410.2139,95.0679" fill="none" style="stroke:#181818;stroke-width:0.5;"/><text fill="#000000" font-family="sans-serif" font-size="14" lengthAdjust="spacing" textLength="14.7139" x="385.5" y="124.0339">s3</text></g><!--entity local--><g class="entity" data-qualified-name="ds.local" data-source-line="7" id="ent0005"><path d="M290,95.0679 C290,85.0679 315.1339,85.0679 315.1339,85.0679 C315.1339,85.0679 340.2679,85.0679 340.2679,95.0679 L340.2679,123.1358 C340.2679,133.1358 315.1339,133.1358 315.1339,133.1358 C315.1339,133.1358 290,133.1358 290,123.1358 L290,95.0679" fill="#F1F1F1" style="stroke:#181818;stroke-width:0.5;"/><path d="M290,95.0679 C290,105.0679 315.1339,105.0679 315.1339,105.0679 C315.1339,105.0679 340.2679,105.0679 340.2679,95.0679" fill="none" style="stroke:#181818;stroke-width:0.5;"/><text fill="#000000" font-family="sans-serif" font-size="14" lengthAdjust="spacing" textLength="30.2679" x="300" y="124.0339">local</text></g><!--entity Categories--><g class="entity" data-qualified-name="ds.Categories" data-source-line="9" id="ent0006"><rect fill="#F1F1F1" height="49.0679" rx="2.5" ry="2.5" style="stroke:#181818;stroke-width:0.5;" width="110.7277" x="187.5" y="193.0679"/><rect fill="#F1F1F1" height="10" style="stroke:#181818;stroke-width:0.5;" width="15" x="278.2277" y="198.0679"/><rect fill="#F1F1F1" height="2" style="stroke:#181818;stroke-width:0.5;" width="4" x="276.2277" y="200.0679"/><rect fill="#F1F1F1" height="2" style="stroke:#181818;stroke-width:0.5;" width="4" x="276.2277" y="204.0679"/><text fill="#000000" font-family="sans-serif" font-size="14" lengthAdjust="spacing" textLength="70.7277" x="202.5" y="228.0339">Categories</text></g><!--entity Messages--><g class="entity" data-qualified-name="ds.Messages" data-source-line="10" id="ent0007"><rect fill="#F1F1F1" height="49.0679" rx="2.5" ry="2.5" style="stroke:#181818;stroke-width:0.5;" width="105.0718" x="333.5" y="193.0679"/><rect fill="#F1F1F1" height="10" style="stroke:#181818;stroke-width:0.5;" width="15" x="418.5718" y="198.0679"/><rect fill="#F1F1F1" height="2" style="stroke:#181818;stroke-width:0.5;" width="4" x="416.5718" y="200.0679"/><rect fill="#F1F1F1" height="2" style="stroke:#181818;stroke-width:0.5;" width="4" x="416.5718" y="204.0679"/><text fill="#000000" font-family="sans-serif" font-size="14" lengthAdjust="spacing" textLength="65.0718" x="348.5" y="228.0339">Messages</text></g><!--entity Logger--><g class="entity" data-qualified-name="orc.Logger" data-source-line="23" id="ent0015"><rect fill="#F1F1F1" height="49.0679" rx="2.5" ry="2.5" style="stroke:#181818;stroke-width:0.5;" width="86.7038" x="140.5" y="320.0679"/><rect fill="#F1F1F1" height="10" style="stroke:#181818;stroke-width:0.5;" width="15" x="207.2038" y="325.0679"/><rect fill="#F1F1F1" height="2" style="stroke:#181818;stroke-width:0.5;" width="4" x="205.2038" y="327.0679"/><rect fill="#F1F1F1" height="2" style="stroke:#181818;stroke-width:0.5;" width="4" x="205.2038" y="331.0679"/><text fill="#000000" font-family="sans-serif" font-size="14" lengthAdjust="spacing" textLength="46.7038" x="155.5" y="355.0339">Logger</text></g><!--entity Tracer--><g class="entity" data-qualified-name="orc.Tracer" data-source-line="24" id="ent0016"><rect fill="#F1F1F1" height="49.0679" rx="2.5" ry="2.5" style="stroke:#181818;stroke-width:0.5;" width="81.8178" x="23" y="320.0679"/><rect fill="#F1F1F1" height="10" style="stroke:#181818;stroke-width:0.5;" width="15" x="84.8178" y="325.0679"/><rect fill="#F1F1F1" height="2" style="stroke:#181818;stroke-width:0.5;" width="4" x="82.8178" y="327.0679"/><rect fill="#F1F1F1" height="2" style="stroke:#181818;stroke-width:0.5;" width="4" x="82.8178" y="331.0679"/><text fill="#000000" font-family="sans-serif" font-size="14" lengthAdjust="spacing" textLength="41.8178" x="38" y="355.0339">Tracer</text></g><!--entity Processor--><g class="entity" data-qualified-name="orc.Processor" data-source-line="25" id="ent0017"><rect fill="#F1F1F1" height="49.0679" rx="2.5" ry="2.5" style="stroke:#181818;stroke-width:0.5;" width="105.0018" x="262.5" y="320.0679"/><rect fill="#F1F1F1" height="10" style="stroke:#181818;stroke-width:0.5;" width="15" x="347.5018" y="325.0679"/><rect fill="#F1F1F1" height="2" style="stroke:#181818;stroke-width:0.5;" width="4" x="345.5018" y="327.0679"/><rect fill="#F1F1F1" height="2" style="stroke:#181818;stroke-width:0.5;" width="4" x="345.5018" y="331.0679"/><text fill="#000000" font-family="sans-serif" font-size="14" lengthAdjust="spacing" textLength="65.0018" x="277.5" y="355.0339">Processor</text></g><!--entity mp--><g class="entity" data-qualified-name="pro.mp" data-source-line="32" id="ent0021"><rect fill="#F1F1F1" height="49.0679" rx="2.5" ry="2.5" style="stroke:#181818;stroke-width:0.5;" width="167.0075" x="423.5" y="320.0679"/><rect fill="#F1F1F1" height="10" style="stroke:#181818;stroke-width:0.5;" width="15" x="570.5075" y="325.0679"/><rect fill="#F1F1F1" height="2" style="stroke:#181818;stroke-width:0.5;" width="4" x="568.5075" y="327.0679"/><rect fill="#F1F1F1" height="2" style="stroke:#181818;stroke-width:0.5;" width="4" x="568.5075" y="331.0679"/><text fill="#000000" font-family="sans-serif" font-size="14" lengthAdjust="spacing" textLength="127.0075" x="438.5" y="355.0339">Message Processor</text></g><!--entity cp--><g class="entity" data-qualified-name="pro.cp" data-source-line="33" id="ent0022"><rect fill="#F1F1F1" height="49.0679" rx="2.5" ry="2.5" style="stroke:#181818;stroke-width:0.5;" width="168.2955" x="424" y="447.0679"/><rect fill="#F1F1F1" height="10" style="stroke:#181818;stroke-width:0.5;" width="15" x="572.2955" y="452.0679"/><rect fill="#F1F1F1" height="2" style="stroke:#181818;stroke-width:0.5;" width="4" x="570.2955" y="454.0679"/><rect fill="#F1F1F1" height="2" style="stroke:#181818;stroke-width:0.5;" width="4" x="570.2955" y="458.0679"/><text fill="#000000" font-family="sans-serif" font-size="14" lengthAdjust="spacing" textLength="128.2955" x="439" y="482.0339">Category Processor</text></g><!--entity dest--><g class="entity" data-qualified-name="dd.dest" data-source-line="37" id="ent0024"><rect fill="#F1F1F1" height="49.0679" rx="2.5" ry="2.5" style="stroke:#181818;stroke-width:0.5;" width="115.7817" x="664" y="447.0679"/><rect fill="#F1F1F1" height="10" style="stroke:#181818;stroke-width:0.5;" width="15" x="759.7817" y="452.0679"/><rect fill="#F1F1F1" height="2" style="stroke:#181818;stroke-width:0.5;" width="4" x="757.7817" y="454.0679"/><rect fill="#F1F1F1" height="2" style="stroke:#181818;stroke-width:0.5;" width="4" x="757.7817" y="458.0679"/><text fill="#000000" font-family="sans-serif" font-size="14" lengthAdjust="spacing" textLength="75.7817" x="679" y="482.0339">Destination</text></g><!--entity dbd--><g class="entity" data-qualified-name="dd.dbd" data-source-line="38" id="ent0025"><path d="M648.5,566.0679 C648.5,556.0679 667.11,556.0679 667.11,556.0679 C667.11,556.0679 685.7199,556.0679 685.7199,566.0679 L685.7199,594.1358 C685.7199,604.1358 667.11,604.1358 667.11,604.1358 C667.11,604.1358 648.5,604.1358 648.5,594.1358 L648.5,566.0679" fill="#F1F1F1" style="stroke:#181818;stroke-width:0.5;"/><path d="M648.5,566.0679 C648.5,576.0679 667.11,576.0679 667.11,576.0679 C667.11,576.0679 685.7199,576.0679 685.7199,566.0679" fill="none" style="stroke:#181818;stroke-width:0.5;"/><text fill="#000000" font-family="sans-serif" font-size="14" lengthAdjust="spacing" textLength="17.2199" x="658.5" y="595.0339">db</text></g><!--entity s3d--><g class="entity" data-qualified-name="dd.s3d" data-source-line="39" id="ent0026"><path d="M720.5,566.0679 C720.5,556.0679 737.857,556.0679 737.857,556.0679 C737.857,556.0679 755.2139,556.0679 755.2139,566.0679 L755.2139,594.1358 C755.2139,604.1358 737.857,604.1358 737.857,604.1358 C737.857,604.1358 720.5,604.1358 720.5,594.1358 L720.5,566.0679" fill="#F1F1F1" style="stroke:#181818;stroke-width:0.5;"/><path d="M720.5,566.0679 C720.5,576.0679 737.857,576.0679 737.857,576.0679 C737.857,576.0679 755.2139,576.0679 755.2139,566.0679" fill="none" style="stroke:#181818;stroke-width:0.5;"/><text fill="#000000" font-family="sans-serif" font-size="14" lengthAdjust="spacing" textLength="14.7139" x="730.5" y="595.0339">s3</text></g><!--entity locald--><g class="entity" data-qualified-name="dd.locald" data-source-line="40" id="ent0027"><path d="M791,566.0679 C791,556.0679 816.1339,556.0679 816.1339,556.0679 C816.1339,556.0679 841.2679,556.0679 841.2679,566.0679 L841.2679,594.1358 C841.2679,604.1358 816.1339,604.1358 816.1339,604.1358 C816.1339,604.1358 791,604.1358 791,594.1358 L791,566.0679" fill="#F1F1F1" style="stroke:#181818;stroke-width:0.5;"/><path d="M791,566.0679 C791,576.0679 816.1339,576.0679 816.1339,576.0679 C816.1339,576.0679 841.2679,576.0679 841.2679,566.0679" fill="none" style="stroke:#181818;stroke-width:0.5;"/><text fill="#000000" font-family="sans-serif" font-size="14" lengthAdjust="spacing" textLength="30.2679" x="801" y="595.0339">local</text></g><!--link db to Messages--><g class="link" data-entity-1="ent0003" data-entity-2="ent0007" data-link-type="dependency" data-source-line="12" id="lnk8"><path d="M254.69,123.3379 C279.2,140.7379 317.7082,168.0737 347.8682,189.4937" fill="none" id="db-to-Messages" style="stroke:#181818;stroke-width:1;"/><polygon fill="#181818" points="352.76,192.9679,347.7384,184.4954,348.6835,190.0727,343.1061,191.0178,352.76,192.9679" style="stroke:#181818;stroke-width:1;"/></g><!--link db to Categories--><g class="link" data-entity-1="ent0003" data-entity-2="ent0006" data-link-type="dependency" data-source-line="13" id="lnk9"><path d="M237.52,133.1779 C238.68,150.7979 239.8762,168.9909 241.0462,186.7809" fill="none" id="db-to-Categories" style="stroke:#181818;stroke-width:1;"/><polygon fill="#181818" points="241.44,192.7679,244.8407,183.5248,241.1119,187.7787,236.858,184.0498,241.44,192.7679" style="stroke:#181818;stroke-width:1;"/></g><!--link s3 to Messages--><g class="link" data-entity-1="ent0004" data-entity-2="ent0007" data-link-type="dependency" data-source-line="15" id="lnk10"><path d="M391.48,133.1779 C390.32,150.7979 389.1238,168.9909 387.9538,186.7809" fill="none" id="s3-to-Messages" style="stroke:#181818;stroke-width:1;"/><polygon fill="#181818" points="387.56,192.7679,392.142,184.0498,387.8881,187.7787,384.1593,183.5248,387.56,192.7679" style="stroke:#181818;stroke-width:1;"/></g><!--link s3 to Categories--><g class="link" data-entity-1="ent0004" data-entity-2="ent0006" data-link-type="dependency" data-source-line="16" id="lnk11"><path d="M375.5,122.4979 C351.23,139.7179 311.7927,167.725 281.1227,189.495" fill="none" id="s3-to-Categories" style="stroke:#181818;stroke-width:1;"/><polygon fill="#181818" points="276.23,192.9679,285.8844,191.0203,280.3073,190.0738,281.2538,184.4967,276.23,192.9679" style="stroke:#181818;stroke-width:1;"/></g><!--link local to Messages--><g class="link" data-entity-1="ent0005" data-entity-2="ent0007" data-link-type="dependency" data-source-line="18" id="lnk12"><path d="M330.41,133.1779 C342.15,150.7979 354.9418,169.9856 366.8018,187.7756" fill="none" id="local-to-Messages" style="stroke:#181818;stroke-width:1;"/><polygon fill="#181818" points="370.13,192.7679,368.4659,183.0607,367.3565,188.6077,361.8095,187.4983,370.13,192.7679" style="stroke:#181818;stroke-width:1;"/></g><!--link local to Categories--><g class="link" data-entity-1="ent0005" data-entity-2="ent0006" data-link-type="dependency" data-source-line="19" id="lnk13"><path d="M299.38,133.1779 C287.47,150.7979 274.481,170.0076 262.451,187.7976" fill="none" id="local-to-Categories" style="stroke:#181818;stroke-width:1;"/><polygon fill="#181818" points="259.09,192.7679,267.445,187.5532,261.8908,188.626,260.818,183.0718,259.09,192.7679" style="stroke:#181818;stroke-width:1;"/></g><!--link Messages to Processor--><g class="link" data-entity-1="ent0007" data-entity-2="ent0017" data-link-type="dependency" data-source-line="28" id="lnk18"><path d="M372.65,242.0779 C360.03,264.2879 344.173,292.2106 331.503,314.5206" fill="none" id="Messages-to-Processor" style="stroke:#181818;stroke-width:1;"/><polygon fill="#181818" points="328.54,319.7379,336.4627,313.8872,331.0091,315.3901,329.5062,309.9366,328.54,319.7379" style="stroke:#181818;stroke-width:1;"/></g><!--link Categories to Processor--><g class="link" data-entity-1="ent0006" data-entity-2="ent0017" data-link-type="dependency" data-source-line="29" id="lnk19"><path d="M256.54,242.0779 C269.33,264.2879 285.4254,292.2287 298.2754,314.5387" fill="none" id="Categories-to-Processor" style="stroke:#181818;stroke-width:1;"/><polygon fill="#181818" points="301.27,319.7379,300.2442,309.9426,298.7745,315.4052,293.3119,313.9355,301.27,319.7379" style="stroke:#181818;stroke-width:1;"/></g><!--link dest to dbd--><g class="link" data-entity-1="ent0024" data-entity-2="ent0025" data-link-type="dependency" data-source-line="42" id="lnk28"><path d="M709.79,496.2079 C700.62,513.9779 690.8642,532.8674 681.7342,550.5374" fill="none" id="dest-to-dbd" style="stroke:#181818;stroke-width:1;"/><polygon fill="#181818" points="678.98,555.8679,686.665,549.7083,681.2752,551.4258,679.5577,546.036,678.98,555.8679" style="stroke:#181818;stroke-width:1;"/></g><!--link dest to s3d--><g class="link" data-entity-1="ent0024" data-entity-2="ent0026" data-link-type="dependency" data-source-line="43" id="lnk29"><path d="M725.55,496.2079 C728.22,513.9779 730.9701,532.2643 733.6201,549.9343" fill="none" id="dest-to-s3d" style="stroke:#181818;stroke-width:1;"/><polygon fill="#181818" points="734.51,555.8679,737.1309,546.3742,733.7684,550.9232,729.2194,547.5607,734.51,555.8679" style="stroke:#181818;stroke-width:1;"/></g><!--link dest to locald--><g class="link" data-entity-1="ent0024" data-entity-2="ent0027" data-link-type="dependency" data-source-line="44" id="lnk30"><path d="M742.86,496.2079 C758.55,513.9779 775.9604,533.6987 791.5504,551.3687" fill="none" id="dest-to-locald" style="stroke:#181818;stroke-width:1;"/><polygon fill="#181818" points="795.52,555.8679,792.5651,546.4728,792.212,552.1186,786.5662,551.7655,795.52,555.8679" style="stroke:#181818;stroke-width:1;"/></g><!--link Processor to mp--><g class="link" data-entity-1="ent0017" data-entity-2="ent0021" data-link-type="dependency" data-source-line="47" id="lnk31"><path d="M367.88,344.5679 C386.35,344.5679 398.83,344.5679 417.31,344.5679" fill="none" id="Processor-to-mp" style="stroke:#181818;stroke-width:1;"/><polygon fill="#181818" points="423.31,344.5679,414.31,340.5679,418.31,344.5679,414.31,348.5679,423.31,344.5679" style="stroke:#181818;stroke-width:1;"/></g><!--link mp to cp--><g class="link" data-entity-1="ent0021" data-entity-2="ent0022" data-link-type="dependency" data-source-line="48" id="lnk32"><path d="M507.19,369.0779 C507.37,391.2879 507.5816,418.4281 507.7616,440.7381" fill="none" id="mp-to-cp" style="stroke:#181818;stroke-width:1;"/><polygon fill="#181818" points="507.81,446.7379,511.7373,437.7059,507.7697,441.7381,503.7375,437.7705,507.81,446.7379" style="stroke:#181818;stroke-width:1;"/></g><!--link cp to dest--><g class="link" data-entity-1="ent0022" data-entity-2="ent0024" data-link-type="dependency" data-source-line="49" id="lnk33"><path d="M592.01,471.5679 C615.96,471.5679 633.91,471.5679 657.86,471.5679" fill="none" id="cp-to-dest" style="stroke:#181818;stroke-width:1;"/><polygon fill="#181818" points="663.86,471.5679,654.86,467.5679,658.86,471.5679,654.86,475.5679,663.86,471.5679" style="stroke:#181818;stroke-width:1;"/></g><?plantuml-src RLAnQiGm3Dtp5I9xfko5qeCkBJrej-C6nrPzXbmS91-bBVttAawSEEOoMNfvJzAJWWizGlsC0vBguP7qnGNKuKPOLzKdgQkW1nKKlFiRQUGQ58DX-Ar0FYD8fnZ1TFkOsttSUwtwAkPEJogWzUIGptFY5PcLdSAPr45Z_DVGF412olmcCLEulK_9yYKbTdIVjOSoujzgoPiOXHn81UU7w8adlPXoUl7M8Yt3VP3IQt0aBnwobrYqKb5efCmALLl10aZ5ZqfsrMEV83VOsC98FhMmI6_ay_J3TTnjuBk0zPXDcBhuGPFSWOECx8Ouyt889XNCeAXb9DwVG6swcTEP0k0s0joMG5n4nEBBBFSXqkjsLhKykIhboKL29ipM00A8AzSnMYq6Q7cHivSmQKyp_0C0?></g></svg>